/* XPM */
static const char * applications_other_xpm[] = {
"16 16 82 1",
" 	c None",
".	c #CE5C00",
"+	c #F5DFC2",
"@	c #F3D9B4",
"#	c #F5DBB8",
"$	c #E8B365",
"%	c #DE901E",
"&	c #EFCB96",
"*	c #F1CE9D",
"=	c #E5A444",
"-	c #EAB566",
";	c #DF8E17",
">	c #DF8D14",
",	c #F1CC97",
"'	c #F1CE9C",
")	c #E18F16",
"!	c #E9AA4F",
"~	c #EFC17E",
"{	c #E59828",
"]	c #E39119",
"^	c #E29018",
"/	c #F1CD97",
"(	c #F2CE9B",
"_	c #E29119",
":	c #E4931B",
"<	c #EEBB6F",
"[	c #EBA847",
"}	c #E69721",
"|	c #EBAB4C",
"1	c #EEBA6D",
"2	c #EDB665",
"3	c #F4D8AE",
"4	c #F1CF9E",
"5	c #E5941D",
"6	c #EAA238",
"7	c #F3C889",
"8	c #EFB35C",
"9	c #F1BA69",
"0	c #F4CB8F",
"a	c #F4CC91",
"b	c #F3CB90",
"c	c #F2CA8E",
"d	c #F9EAD5",
"e	c #F8DEBD",
"f	c #E69825",
"g	c #EAA33A",
"h	c #F4CA8D",
"i	c #EFAE4D",
"j	c #F1B55C",
"k	c #F6CE94",
"l	c #F5CE93",
"m	c #F4CD92",
"n	c #F3CC91",
"o	c #F8DFC0",
"p	c #F7D7AF",
"q	c #F4CC8F",
"r	c #EFAA45",
"s	c #F2AF4F",
"t	c #F6C47B",
"u	c #F8D197",
"v	c #F7D096",
"w	c #F7D095",
"x	c #F6CE95",
"y	c #F9DCB9",
"z	c #EFA231",
"A	c #F1A332",
"B	c #F8CC8B",
"C	c #F9D399",
"D	c #F9D299",
"E	c #F8D198",
"F	c #FAE1C1",
"G	c #F8D1A1",
"H	c #F5AD43",
"I	c #FACD8B",
"J	c #FBD59C",
"K	c #FBD49C",
"L	c #F8D1A0",
"M	c #FAC579",
"N	c #FDD79F",
"O	c #FBEAD3",
"P	c #F8DDBD",
"Q	c #FAE0BF",
"                ",
"       ..       ",
"      .+@.      ",
"     .#$%&.     ",
"    .*=-;>,.    ",
"   .')!~{]^/.   ",
"  .(_:<[}|123.  ",
" .4]567890abcd. ",
" .efghijkklmno. ",
"  .pqrstuvwxo.  ",
"   .yzABCDEF.   ",
"    .GHIJKF.    ",
"     .LMNO.     ",
"      .PQ.      ",
"       ..       ",
"                "};
