/* XPM */
static const char * chunk_xpm[] = {
"16 16 143 2",
"  	c None",
". 	c #E3E5D8",
"+ 	c #EEEFE4",
"@ 	c #F4F5EC",
"# 	c #F8F8F1",
"$ 	c #E1E3D5",
"% 	c #E1E3D6",
"& 	c #FAFAF2",
"* 	c #FFFFFE",
"= 	c #FFFFFF",
"- 	c #F7F7F2",
"; 	c #E7E8DD",
"> 	c #E3E5D6",
", 	c #D4D7C8",
"' 	c #E6E8DC",
") 	c #ECEEE3",
"! 	c #FEFEFC",
"~ 	c #ECECE4",
"{ 	c #E9E9DE",
"] 	c #E4E6D0",
"^ 	c #E5E5BA",
"/ 	c #EDEEE0",
"( 	c #EFEFDA",
"_ 	c #F0F1E0",
": 	c #F5F5E7",
"< 	c #FDFDFB",
"[ 	c #EFEFEB",
"} 	c #EDEDE3",
"| 	c #E8E8D6",
"1 	c #ECECE0",
"2 	c #E5E5C5",
"3 	c #EFEFD7",
"4 	c #EDEDD2",
"5 	c #F5F5E5",
"6 	c #F4F4E4",
"7 	c #F9F9EF",
"8 	c #F2F2E9",
"9 	c #E6E4DB",
"0 	c #EEEEE6",
"a 	c #ECECDC",
"b 	c #EBEBD3",
"c 	c #EBECD7",
"d 	c #E3E4C0",
"e 	c #E9E9C6",
"f 	c #E5E5BD",
"g 	c #E9E8C7",
"h 	c #DBD8AF",
"i 	c #CCC693",
"j 	c #BFB77A",
"k 	c #DDD9B8",
"l 	c #E0DCBC",
"m 	c #ECEAD4",
"n 	c #EDEDD3",
"o 	c #E8E9D4",
"p 	c #CED1BE",
"q 	c #DADCC3",
"r 	c #E4E4B9",
"s 	c #E3E3B8",
"t 	c #E8E8C4",
"u 	c #ECECCE",
"v 	c #EDEBD4",
"w 	c #E1DEBC",
"x 	c #D7D2A9",
"y 	c #D3CEA3",
"z 	c #DCD8B5",
"A 	c #E7E6CE",
"B 	c #E8E9DA",
"C 	c #D7DBCA",
"D 	c #D4D7C0",
"E 	c #E4E4BB",
"F 	c #E2DFBB",
"G 	c #CDC794",
"H 	c #D1CB9D",
"I 	c #DBD8B4",
"J 	c #E9E7CF",
"K 	c #F1F0DD",
"L 	c #F4F4E3",
"M 	c #ECECD2",
"N 	c #C3C8B0",
"O 	c #D2D6C1",
"P 	c #E2E2B6",
"Q 	c #E5E5BB",
"R 	c #CEC996",
"S 	c #E7E5C6",
"T 	c #DDDAB5",
"U 	c #F0F0DC",
"V 	c #F4F4E2",
"W 	c #F1F1DB",
"X 	c #E9E9CA",
"Y 	c #CFD2B7",
"Z 	c #C3C7AD",
"` 	c #A2AA8F",
" .	c #CED1B1",
"..	c #DDDDAE",
"+.	c #DDDDA9",
"@.	c #E0E0B0",
"#.	c #D3D09B",
"$.	c #DCD9AB",
"%.	c #F7F7EA",
"&.	c #EAEACA",
"*.	c #E2E2B5",
"=.	c #E0E0AF",
"-.	c #E2E2B4",
";.	c #DBDCBA",
">.	c #D0D2A6",
",.	c #D6D697",
"'.	c #D9D99E",
").	c #C0BA73",
"!.	c #B0A657",
"~.	c #D6D49E",
"{.	c #D9D7A0",
"].	c #DEDEAB",
"^.	c #DDDDA8",
"/.	c #DBDBA3",
"(.	c #D9D99D",
"_.	c #D7D799",
":.	c #C3C7A1",
"<.	c #A8AF8F",
"[.	c #D3D499",
"}.	c #CDCA85",
"|.	c #A89C47",
"1.	c #ADA24D",
"2.	c #ABA04C",
"3.	c #A69A42",
"4.	c #B2A958",
"5.	c #D6D598",
"6.	c #D7D797",
"7.	c #D4D492",
"8.	c #CACC93",
"9.	c #A1A785",
"0.	c #C1C492",
"a.	c #A7AC84",
"b.	c #A0A176",
"c.	c #A5A576",
"d.	c #A7A673",
"e.	c #ACA769",
"f.	c #ACA24B",
"g.	c #BDBF92",
"h.	c #B8BC8F",
"i.	c #D0D08D",
"j.	c #BABD8A",
"k.	c #ACAD73",
"l.	c #82886C",
"                                ",
"            . + @ # $           ",
"          % & * = - ;           ",
"    > , ' ) ! = = ~ {           ",
"  ] ^ / ( _ : < [ } | 1         ",
"  2 3 4 5 6 7 8 9 0 a b c       ",
"  d e f g h i j k l m n o p     ",
"  q r s t u v w x y z A B C     ",
"    D E f e F G H I J K L M N   ",
"      O P Q R S T U V W X Y Z ` ",
"     ...+.@.#.$.%.&.*.=.-.;.    ",
"    >.,.'.).!.~.{.].^./.(._.:.  ",
"    <.[.}.|.1.2.3.4.5.6.7.8.    ",
"    9.0.a.b.c.d.e.f.g.h.i.j.    ",
"                  k.l.          ",
"                                "};
