/* XPM */
static const char * document_new_xpm[] = {
"16 16 59 1",
" 	c None",
".	c #9E9E9E",
"+	c #818181",
"@	c #8C8C7C",
"#	c #9F9F72",
"$	c #AFAE6A",
"%	c #EDE436",
"&	c #FFFFFF",
"*	c #F2EE9B",
"=	c #F7F069",
"-	c #FAF24D",
";	c #F7EF46",
">	c #F4EB28",
",	c #ECECEC",
"'	c #EAEAEA",
")	c #EBEBEB",
"!	c #F0EDB4",
"~	c #F7F06A",
"{	c #FCF43A",
"]	c #FDF668",
"^	c #FDF66A",
"/	c #FBF23C",
"(	c #F9EF1E",
"_	c #F2EE9C",
":	c #FAF24E",
"<	c #FDF667",
"[	c #FEFAB5",
"}	c #FEFAB8",
"|	c #FDF56B",
"1	c #FAEF22",
"2	c #F3EF9B",
"3	c #FEFABB",
"4	c #FEFBBF",
"5	c #FDF66E",
"6	c #FAF022",
"7	c #EDEDED",
"8	c #F1EEB1",
"9	c #F8F167",
"0	c #FDF440",
"a	c #FDF771",
"b	c #FDF772",
"c	c #FCF343",
"d	c #F6EC24",
"e	c #EFEEE0",
"f	c #F4EF96",
"g	c #F8F163",
"h	c #FBF346",
"i	c #FBF345",
"j	c #F7EF5D",
"k	c #EEEEEE",
"l	c #EEEEE2",
"m	c #F3F0B1",
"n	c #F5F092",
"o	c #F5F09A",
"p	c #969677",
"q	c #EFEFEF",
"r	c #F0F0F0",
"s	c #F1F1F1",
"t	c #F2F2F2",
".++++++++@#$%   ",
"+&&&&&&&&*=-;>  ",
"+&,'')))!~{]^/( ",
"+&'')),,_:<[}|1 ",
"+&')),,,2:^3456 ",
"+&)),,,7890abcd ",
"+&)),,77efghij  ",
"+&),,77kklmnop  ",
"+&,,77kkqqqr&+  ",
"+&,,77kkqqrr&+  ",
"+&,7kkqqrsss&+  ",
"+&77kkqrrsst&+  ",
"+&77kqqrrstt&+  ",
"+&&&&&&&&&&&&+  ",
".++++++++++++.  ",
"                "};
