/* XPM */
static const char * folder_open_xpm[] = {
"16 16 117 2",
"  	c None",
". 	c #7A7A7A",
"+ 	c #797979",
"@ 	c #787878",
"# 	c #C9C9C9",
"$ 	c #C7C7C7",
"% 	c #C5C5C5",
"& 	c #C4C4C4",
"* 	c #B2B2B2",
"= 	c #757575",
"- 	c #737373",
"; 	c #B0B0B0",
"> 	c #ADADAD",
", 	c #ABABAB",
"' 	c #AAAAAA",
") 	c #6D6D6D",
"! 	c #6C6C6C",
"~ 	c #6B6B6B",
"{ 	c #6A6A6A",
"] 	c #6E6E6E",
"^ 	c #C1C1C0",
"/ 	c #ACACAC",
"( 	c #A7A7A7",
"_ 	c #A5A5A5",
": 	c #A4A4A4",
"< 	c #A9A9A9",
"[ 	c #BABABA",
"} 	c #C8C8C8",
"| 	c #CACACA",
"1 	c #C0C0C0",
"2 	c #656565",
"3 	c #BDBDBD",
"4 	c #A6A6A6",
"5 	c #A3A3A3",
"6 	c #A1A1A1",
"7 	c #A0A0A0",
"8 	c #9F9F9F",
"9 	c #5F5F5F",
"0 	c #B7B7B7",
"a 	c #9D9D9D",
"b 	c #9C9C9C",
"c 	c #9B9B9B",
"d 	c #9A9A9A",
"e 	c #9E9E9E",
"f 	c #5B5B5B",
"g 	c #B3B3B3",
"h 	c #4971A5",
"i 	c #3968A5",
"j 	c #3766A3",
"k 	c #3666A5",
"l 	c #3768A7",
"m 	c #AEAEAE",
"n 	c #3868A5",
"o 	c #B4CCE6",
"p 	c #B7CEE7",
"q 	c #B7CFE7",
"r 	c #B7CEE6",
"s 	c #B1CAE4",
"t 	c #3465A5",
"u 	c #565656",
"v 	c #3968A4",
"w 	c #BED3E9",
"x 	c #92B6DB",
"y 	c #91B5DB",
"z 	c #92B5DB",
"A 	c #93B6DB",
"B 	c #95B8DC",
"C 	c #B3CBE6",
"D 	c #3566A5",
"E 	c #515151",
"F 	c #A5A5A4",
"G 	c #3C6AA5",
"H 	c #C1D5EA",
"I 	c #94B7DC",
"J 	c #8EB3DA",
"K 	c #86AED8",
"L 	c #B5CDE6",
"M 	c #4C4C4C",
"N 	c #406DA8",
"O 	c #C4D7EB",
"P 	c #9BBBDE",
"Q 	c #94B6DC",
"R 	c #8BB0D9",
"S 	c #88AED8",
"T 	c #8DB1DA",
"U 	c #B8CFE7",
"V 	c #484848",
"W 	c #8F949B",
"X 	c #4F79AE",
"Y 	c #AEC8E4",
"Z 	c #93B5DB",
"` 	c #92B4DB",
" .	c #8CB0D9",
"..	c #85ACD6",
"+.	c #7FA8D4",
"@.	c #7EA7D4",
"#.	c #82AAD5",
"$.	c #A2BFDF",
"%.	c #3667A5",
"&.	c #494949",
"*.	c #999999",
"=.	c #68809F",
"-.	c #688FBD",
";.	c #9DBDDF",
">.	c #81A9D5",
",.	c #84ABD6",
"'.	c #86ABD4",
").	c #3868A7",
"!.	c #484849",
"~.	c #6A7F99",
"{.	c #608FC3",
"].	c #5C8EC4",
"^.	c #598CC3",
"/.	c #4779B4",
"(.	c #3567A5",
"_.	c #454F5D",
":.	c #3465A4",
"                                ",
". + + + + + +                   ",
"@ # $ % & & * =                 ",
"- % ; > , ' ' . ) ! ~ ~ { ]     ",
"] ^ / ' ( _ : < [ % } | 1 2     ",
"{ 3 < 4 5 6 7 8 8 7 6 5 5 9     ",
"2 0 4 5 7 a b c d c b e e f     ",
"9 g 5 h i i i i i i i i i j k l ",
"f m 7 n o p p q r r r r r r s t ",
"u < e v w x y z x x x x A B C D ",
"E F b G H I I I I I I I J K L D ",
"M 6 c N O P P P P P Q R S T U D ",
"V c W X Y Z `  ...+.@.@.@.#.$.%.",
"&.*.=.-.;.R #.>.>.>.>.>.>.,.'.).",
"!.~.i {.].^.^.^.^.^.^.^.^.^./.(.",
"_.:.:.:.:.:.:.:.:.:.:.:.:.:.:.  "};
