/* XPM */
static const char * system_search_xpm[] = {
"16 16 127 2",
"  	c None",
". 	c #767875",
"+ 	c #6F706C",
"@ 	c #70716D",
"# 	c #6E706B",
"$ 	c #6D6F6A",
"% 	c #7A7C78",
"& 	c #6D6F6C",
"* 	c #CBCCCA",
"= 	c #DADBDC",
"- 	c #D4D6D9",
"; 	c #D1D5D9",
"> 	c #D7D8DA",
", 	c #CACAC9",
"' 	c #6C6E6B",
") 	c #6F716C",
"! 	c #DADBDB",
"~ 	c #96A9C1",
"{ 	c #6D97C5",
"] 	c #75A1CF",
"^ 	c #729FCE",
"/ 	c #6893C2",
"( 	c #9BADC2",
"_ 	c #DEDEDE",
": 	c #6C6E6A",
"< 	c #DADADA",
"[ 	c #8AA6C5",
"} 	c #729FCF",
"| 	c #C7D8EB",
"1 	c #E2EBF5",
"2 	c #DFE9F3",
"3 	c #AEC8E3",
"4 	c #8EA8C5",
"5 	c #DBDBDB",
"6 	c #6B6D69",
"7 	c #A7A8A6",
"8 	c #9EAFC4",
"9 	c #D6E2F1",
"0 	c #E7EEF7",
"a 	c #ECF2F8",
"b 	c #E3EBF5",
"c 	c #D1E0F0",
"d 	c #97B8DB",
"e 	c #719ECE",
"f 	c #ADBACA",
"g 	c #A3A4A1",
"h 	c #696B66",
"i 	c #DADAD9",
"j 	c #6690BF",
"k 	c #ACC6E2",
"l 	c #D9E4F1",
"m 	c #E0E9F4",
"n 	c #E3EBF4",
"o 	c #E0E9F3",
"p 	c #CEDDED",
"q 	c #80A7D4",
"r 	c #729ECF",
"s 	c #81A3CA",
"t 	c #D9D9D8",
"u 	c #D8DADB",
"v 	c #B4CCE6",
"w 	c #CBDBEC",
"x 	c #D3E1F0",
"y 	c #D7E4F1",
"z 	c #D5E2F0",
"A 	c #729DCF",
"B 	c #E2E2E2",
"C 	c #6C6E69",
"D 	c #DFDFDF",
"E 	c #76A0CD",
"F 	c #8FB1D9",
"G 	c #B6CDE6",
"H 	c #C7D9EC",
"I 	c #C0D3E9",
"J 	c #A2BEDF",
"K 	c #739FCF",
"L 	c #6E9AC9",
"M 	c #838580",
"N 	c #C4C4C4",
"O 	c #85A6CA",
"P 	c #6994C5",
"Q 	c #618AB9",
"R 	c #89A9CB",
"S 	c #C9C9C8",
"T 	c #848682",
"U 	c #828481",
"V 	c #D1D9E1",
"W 	c #6F9CCD",
"X 	c #729ECE",
"Y 	c #D2D9E0",
"Z 	c #676965",
"` 	c #6A6C68",
" .	c #A8A9A8",
"..	c #B9CADC",
"+.	c #5C85B3",
"@.	c #6F9BCA",
"#.	c #5980AD",
"$.	c #739FCE",
"%.	c #C5CCD2",
"&.	c #939592",
"*.	c #868785",
"=.	c #686966",
"-.	c #919291",
";.	c #DBE2E9",
">.	c #96B3D2",
",.	c #78A1CD",
"'.	c #97B4D3",
").	c #D5DCE4",
"!.	c #6A6B68",
"~.	c #B8B8B7",
"{.	c #858784",
"].	c #747672",
"^.	c #666864",
"/.	c #7F807D",
"(.	c #8F908F",
"_.	c #C2C2C2",
":.	c #898A89",
"<.	c #646662",
"[.	c #6D6E6B",
"}.	c #B7B7B5",
"|.	c #898B88",
"1.	c #C7C7C7",
"2.	c #6C6D6A",
"3.	c #888A85",
"4.	c #6B6B6B",
"5.	c #CBCBCA",
"6.	c #D6D6D6",
"        . + @ # $ %             ",
"      & * = - ; > , '           ",
"    ) ! ~ { ] ^ / ( _ #         ",
"  : < [ } | 1 2 3 ^ 4 5 6       ",
"  7 8 ^ 9 0 a b c d e f g       ",
"h i j k l m n o p q r s t h     ",
"# u e v w x y z     A e B #     ",
"C D E F G H I J     K L 5 C     ",
"M N O P A           Q R S T     ",
"  U V ^ W     X     ^ Y Z       ",
"  `  ...^ +.  @.#.$.%.&.*.=.    ",
"    C -.;.>.,.^ '.).!.~.{.].^.  ",
"      ` /.(._.D :.<.  [.}.|.1.2.",
"          3.C C 3.    4.2.5.6.2.",
"                          2.2.  ",
"                                "};
