/* XPM */
static char * Icon_xpm[] = {
"32 32 16 1",
" 	c None",
".	c #68748E",
"+	c #585768",
"@	c #25243A",
"#	c #201F35",
"$	c #17172F",
"%	c #1F2F53",
"&	c #858695",
"*	c #18203E",
"=	c #1F4378",
"-	c #325383",
";	c #728AAE",
">	c #C6CDDD",
",	c #F4EFF3",
"'	c #FFFFFF",
")	c #A0B0CA",
"                                ",
"                                ",
"                                ",
"            .+@#$#@%.           ",
"           ...$$$$$$$$+         ",
"  &        %. $$$$$****@&       ",
"  ++     &@#  $$$**%%%%**+      ",
"  .$%+++%@$$  $$$*%===%%*$.     ",
"   +@@+&%$#.  $$*%=-.;-=%*#.    ",
"    %$@@#$.  .$$*%=.>,;-%*$@    ",
"    +&&.       .%%-;'').%*$$.   ",
"    $%          +%=;)>;-%*$$%   ",
"   +$$$$$$+      %==..-%%*$$$   ",
"   %$$$$$$+      *%%===%*$$$$+  ",
"   @$$$$$$%      ++%%%**$$$$$%  ",
"   #$*$$$$$+       &**$$$$$$$@  ",
"   $$%$$$$$$$$      +$$$$$**$$  ",
"   #$%*$$$$$$$       $$$$$**$@  ",
"   @$*%$$$$$$$       $$$$$%*$+  ",
"   %$*=*$$$$$$      +$$$$%%$$.  ",
"   .$$%=$$$$$$@    &$$$$*.+$#   ",
"    $$*=%$$$$$$@++%#$$$*=-@$%   ",
"    +$$%==*$$$$$$$$$$$%==*$$    ",
"     @$*===%*$$$$$$$*%==%$$%    ",
"     &$$*%====%%%%%====%$$@     ",
"      +$$$%====-;-====*$$$      ",
"       .#$$*%===;-=%*$$$@       ",
"        .@$$$$*****$$$$%        ",
"          .%$$$$$$$$#%          ",
"             +%@$@+.            ",
"                                ",
"                                "};
